<svg width="1280" height="1280" viewBox="0 0 1280 1280" fill="none" xmlns="http://www.w3.org/2000/svg">
<rect width="1280" height="1280" fill="#FD6119"/>
<g clip-path="url(#clip0_438_3)">
<path d="M169.238 37.4619L145.616 330.799H183.953L187.433 268.841H211.673L215.153 330.799H253.933L229.868 37.4619H169.238ZM189.459 232.72L199.553 52.9673L209.647 232.72H189.459Z" fill="white"/>
<path d="M318.138 37.4611H266.432V330.799H318.138C333.295 330.799 344.956 326.78 353.136 318.758C361.3 310.736 365.398 298.997 365.398 283.539V84.7052C365.398 69.2631 361.316 57.5074 353.136 49.4858C344.956 41.4641 333.295 37.4453 318.138 37.4453V37.4611ZM327.062 283.096C327.062 286.656 326.175 289.488 324.388 291.56C322.6 293.649 319.926 294.677 316.366 294.677H304.769V73.5666H316.366C319.926 73.5666 322.6 74.6109 324.388 76.6835C326.175 78.772 327.062 81.5883 327.062 85.1482V283.08V283.096Z" fill="white"/>
<path d="M443.843 37.4619L428.242 311.987L412.642 37.4619H374.306L397.928 330.799H458.557L482.638 37.4619H443.843Z" fill="white"/>
<path d="M500.469 37.4619L476.847 330.799H515.184L518.664 268.841H542.903L546.384 330.799H585.164L561.099 37.4619H500.469ZM520.69 232.72L530.784 52.9673L540.878 232.72H520.69Z" fill="white"/>
<path d="M667.849 218.512L627.519 37.4619H596.302V330.799H634.654L626.411 153.848L666.741 330.799H697.958V37.4619H659.606L667.849 218.512Z" fill="white"/>
<path d="M762.147 33C745.803 33 733.462 37.0188 725.14 45.0404C716.817 53.0621 712.656 65.1026 712.656 81.1459V287.099C712.656 303.143 716.817 315.183 725.14 323.205C733.462 331.226 745.787 335.245 762.147 335.245C778.507 335.245 790.816 331.226 799.154 323.205C807.477 315.183 811.638 303.143 811.638 287.099V220.236H773.301V287.099C773.301 290.659 772.336 293.554 770.406 295.785C768.476 298.016 765.723 299.124 762.163 299.124C758.603 299.124 755.85 298 753.92 295.785C751.989 293.554 751.024 290.659 751.024 287.099V81.1459C751.024 77.586 751.989 74.6748 753.92 72.4597C755.85 70.2289 758.603 69.1213 762.163 69.1213C765.723 69.1213 768.476 70.2289 770.406 72.4597C772.336 74.6906 773.301 77.586 773.301 81.1459V158.262H811.638V81.1459C811.638 65.1026 807.477 53.0621 799.154 45.0404C790.832 37.0188 778.491 33 762.147 33Z" fill="white"/>
<path d="M908.357 73.5674V37.4619H865.559H865.116H827.222V330.799H865.116H865.559H908.357V294.678H865.559V191.709H903.895V155.145H865.559V73.5674H908.357Z" fill="white"/>
<path d="M929.669 309.519L947.516 316.496V318.79L929.669 325.768H947.516V331.036H922.723V323.647L938.197 317.635L922.723 311.623V304.187H947.516V309.503H929.669V309.519Z" fill="white"/>
<path d="M943.244 272.368V283.444L947.516 285.01V290.801L922.723 281.213V274.599L947.516 265.059V270.818L943.244 272.384V272.368ZM938.671 282.035V273.824L927.295 277.906L938.671 282.02V282.035Z" fill="white"/>
<path d="M930.855 246.342H947.516V251.611H922.723V246.184L938.782 234.713H922.723V229.444H947.516V234.539L930.855 246.342Z" fill="white"/>
<path d="M922.723 213.4V208.131H947.516V213.4H922.723Z" fill="white"/>
<path d="M922.723 192.087V174.557H927.264V186.819H932.659V174.826H937.2V186.819H947.532V192.087H922.739H922.723Z" fill="white"/>
<path d="M922.723 159.748V142.218H927.264V154.48H932.659V142.487H937.2V154.48H942.959V142.218H947.532V159.748H922.739H922.723Z" fill="white"/>
<path d="M940 125.763C941.82 124.023 943.339 121.301 943.339 117.884C943.339 114.989 941.962 113.58 940.554 113.58C938.687 113.58 938.07 115.732 937.39 118.596C936.456 122.646 935.349 127.836 929.811 127.836C925.682 127.836 922.343 124.276 922.343 118.438C922.343 114.498 923.53 111.239 925.808 108.786L929.669 111.713C927.818 113.723 926.947 116.397 926.947 118.802C926.947 121.207 927.992 122.441 929.479 122.441C931.156 122.441 931.678 120.368 932.343 117.504C933.276 113.422 934.494 108.217 940 108.217C944.541 108.217 947.959 111.444 947.959 118.137C947.959 122.884 946.361 126.301 944.019 128.643L940 125.747V125.763Z" fill="white"/>
<path d="M927.359 88.059V95.3055H922.707V75.5439H927.359V82.7429H947.516V88.059H927.359Z" fill="white"/>
<path d="M922.312 50.1817C922.312 42.6822 927.659 37.2236 935.143 37.2236C942.627 37.2236 947.975 42.6822 947.975 50.1817C947.975 57.6813 942.627 63.1082 935.143 63.1082C927.659 63.1082 922.312 57.6497 922.312 50.1817ZM926.995 50.1817C926.995 54.7543 930.491 57.6813 935.143 57.6813C939.795 57.6813 943.291 54.7543 943.291 50.1817C943.291 45.6092 939.763 42.6505 935.143 42.6505C930.523 42.6505 926.995 45.625 926.995 50.1817Z" fill="white"/>
</g>
<g clip-path="url(#clip1_438_3)">
<path d="M1245.57 411.031L952.231 387.409L952.231 425.746L1014.19 429.226L1014.19 453.465L952.231 456.946L952.231 495.726L1245.57 471.661L1245.57 411.031ZM1050.31 431.252L1230.06 441.346L1050.31 451.44L1050.31 431.252Z" fill="white"/>
<path d="M1245.57 559.931L1245.57 508.226L952.231 508.226L952.231 559.931C952.231 575.089 956.249 586.75 964.271 594.929C972.293 603.093 984.033 607.191 999.491 607.191L1198.32 607.191C1213.77 607.191 1225.52 603.109 1233.54 594.929C1241.57 586.75 1245.58 575.089 1245.58 559.931L1245.57 559.931ZM999.934 568.855C996.374 568.855 993.542 567.969 991.469 566.181C989.38 564.393 988.352 561.719 988.352 558.159L988.352 546.562L1209.46 546.562L1209.46 558.159C1209.46 561.719 1208.42 564.393 1206.35 566.181C1204.26 567.969 1201.44 568.855 1197.88 568.855L999.949 568.855L999.934 568.855Z" fill="white"/>
<path d="M1245.57 685.636L971.043 670.035L1245.57 654.435L1245.57 616.099L952.231 639.721L952.231 700.35L1245.57 724.431L1245.57 685.636Z" fill="white"/>
<path d="M1245.57 742.262L952.231 718.64L952.231 756.976L1014.19 760.457L1014.19 784.696L952.231 788.177L952.231 826.956L1245.57 802.891L1245.57 742.262ZM1050.31 762.482L1230.06 772.576L1050.31 782.671L1050.31 762.482Z" fill="white"/>
<path d="M1064.52 909.641L1245.57 869.311L1245.57 838.095L952.231 838.095L952.231 876.447L1129.18 868.204L952.231 908.534L952.231 939.75L1245.57 939.75L1245.57 901.398L1064.52 909.641Z" fill="white"/>
<path d="M1250.03 1003.94C1250.03 987.595 1246.01 975.254 1237.99 966.932C1229.97 958.609 1217.93 954.448 1201.88 954.448L995.931 954.448C979.887 954.448 967.847 958.609 959.825 966.932C951.804 975.254 947.785 987.579 947.785 1003.94C947.785 1020.3 951.804 1032.61 959.825 1040.95C967.847 1049.27 979.887 1053.43 995.931 1053.43L1062.79 1053.43L1062.79 1015.09L995.931 1015.09C992.371 1015.09 989.476 1014.13 987.245 1012.2C985.014 1010.27 983.906 1007.51 983.906 1003.95C983.906 1000.39 985.03 997.642 987.245 995.712C989.476 993.781 992.371 992.816 995.931 992.816L1201.88 992.816C1205.44 992.816 1208.36 993.781 1210.57 995.712C1212.8 997.642 1213.91 1000.39 1213.91 1003.95C1213.91 1007.51 1212.8 1010.27 1210.57 1012.2C1208.34 1014.13 1205.44 1015.09 1201.88 1015.09L1124.77 1015.09L1124.77 1053.43L1201.88 1053.43C1217.93 1053.43 1229.97 1049.27 1237.99 1040.95C1246.01 1032.62 1250.03 1020.28 1250.03 1003.94Z" fill="white"/>
<path d="M1209.46 1150.15L1245.57 1150.15L1245.57 1107.35L1245.57 1106.91L1245.57 1069.01L952.231 1069.01L952.231 1106.91L952.231 1107.35L952.231 1150.15L988.352 1150.15L988.352 1107.35L1091.32 1107.35L1091.32 1145.69L1127.89 1145.69L1127.89 1107.35L1209.46 1107.35L1209.46 1150.15Z" fill="white"/>
<path d="M973.511 1171.46L966.534 1189.31L964.24 1189.31L957.262 1171.46L957.262 1189.31L951.994 1189.31L951.994 1164.52L959.382 1164.52L965.395 1179.99L971.407 1164.52L978.843 1164.52L978.843 1189.31L973.527 1189.31L973.527 1171.46L973.511 1171.46Z" fill="white"/>
<path d="M1010.66 1185.04L999.586 1185.04L998.019 1189.31L992.229 1189.31L1001.82 1164.52L1008.43 1164.52L1017.97 1189.31L1012.21 1189.31L1010.65 1185.04L1010.66 1185.04ZM1000.99 1180.47L1009.21 1180.47L1005.12 1169.09L1001.01 1180.47L1000.99 1180.47Z" fill="white"/>
<path d="M1036.69 1172.65L1036.69 1189.31L1031.42 1189.31L1031.42 1164.52L1036.85 1164.52L1048.32 1180.58L1048.32 1164.52L1053.59 1164.52L1053.59 1189.31L1048.49 1189.31L1036.69 1172.65Z" fill="white"/>
<path d="M1069.63 1164.52L1074.9 1164.52L1074.9 1189.31L1069.63 1189.31L1069.63 1164.52Z" fill="white"/>
<path d="M1090.94 1164.52L1108.47 1164.52L1108.47 1169.06L1096.21 1169.06L1096.21 1174.45L1108.2 1174.45L1108.2 1178.99L1096.21 1178.99L1096.21 1189.33L1090.94 1189.33L1090.94 1164.53L1090.94 1164.52Z" fill="white"/>
<path d="M1123.28 1164.52L1140.81 1164.52L1140.81 1169.06L1128.55 1169.06L1128.55 1174.45L1140.54 1174.45L1140.54 1178.99L1128.55 1178.99L1128.55 1184.75L1140.81 1184.75L1140.81 1189.33L1123.28 1189.33L1123.28 1164.53L1123.28 1164.52Z" fill="white"/>
<path d="M1157.27 1181.79C1159.01 1183.61 1161.73 1185.13 1165.15 1185.13C1168.04 1185.13 1169.45 1183.76 1169.45 1182.35C1169.45 1180.48 1167.3 1179.86 1164.43 1179.18C1160.38 1178.25 1155.19 1177.14 1155.19 1171.61C1155.19 1167.48 1158.75 1164.14 1164.59 1164.14C1168.53 1164.14 1171.79 1165.32 1174.24 1167.6L1171.32 1171.46C1169.31 1169.61 1166.63 1168.74 1164.23 1168.74C1161.82 1168.74 1160.59 1169.79 1160.59 1171.27C1160.59 1172.95 1162.66 1173.47 1165.53 1174.14C1169.61 1175.07 1174.81 1176.29 1174.81 1181.79C1174.81 1186.34 1171.59 1189.75 1164.89 1189.75C1160.15 1189.75 1156.73 1188.16 1154.39 1185.81L1157.28 1181.79L1157.27 1181.79Z" fill="white"/>
<path d="M1194.97 1169.15L1187.72 1169.15L1187.72 1164.5L1207.48 1164.5L1207.48 1169.15L1200.29 1169.15L1200.29 1189.31L1194.97 1189.31L1194.97 1169.15Z" fill="white"/>
<path d="M1232.85 1164.11C1240.35 1164.11 1245.81 1169.45 1245.81 1176.94C1245.81 1184.42 1240.35 1189.77 1232.85 1189.77C1225.35 1189.77 1219.92 1184.42 1219.92 1176.94C1219.92 1169.45 1225.38 1164.11 1232.85 1164.11ZM1232.85 1168.79C1228.27 1168.79 1225.35 1172.29 1225.35 1176.94C1225.35 1181.59 1228.27 1185.09 1232.85 1185.09C1237.42 1185.09 1240.38 1181.56 1240.38 1176.94C1240.38 1172.32 1237.4 1168.79 1232.85 1168.79Z" fill="white"/>
</g>
<g clip-path="url(#clip2_438_3)">
<path d="M98.688 748.991L224.899 1014.84L258.1 995.671L230.135 940.273L251.127 928.154L285.12 980.071L318.704 960.681L151.195 718.676L98.688 748.991ZM213.828 907.979L132.694 747.261L231.312 897.884L213.828 907.979Z" fill="white"/>
<path d="M227.639 674.542L182.86 700.395L329.529 954.432L374.308 928.579C387.434 921.001 395.523 911.69 398.597 900.653C401.656 889.624 399.335 877.408 391.606 864.021L292.189 691.826C284.468 678.453 275.055 670.313 263.96 667.456C252.866 664.599 240.758 666.949 227.631 674.528L227.639 674.542ZM358.184 882.806C359.964 885.889 360.613 888.784 360.101 891.473C359.597 894.176 357.795 896.403 354.712 898.183L344.669 903.982L234.113 712.495L244.157 706.696C247.24 704.916 250.078 704.483 252.663 705.384C255.255 706.299 257.431 708.295 259.211 711.378L358.176 882.792L358.184 882.806Z" fill="white"/>
<path d="M336.502 611.688L460.255 857.234L309.482 627.289L276.281 646.457L443.407 888.684L495.914 858.369L370.1 592.291L336.502 611.688Z" fill="white"/>
<path d="M385.542 583.376L511.754 849.224L544.954 830.056L516.989 774.658L537.981 762.538L571.975 814.456L605.559 795.066L438.049 553.061L385.542 583.376ZM500.683 742.363L419.549 581.646L518.167 732.269L500.683 742.363Z" fill="white"/>
<path d="M621.022 656.479L495.571 519.851L468.536 535.459L615.205 789.497L648.419 770.321L552.804 621.197L676.207 754.277L703.241 738.669L556.573 484.631L523.359 503.807L621.022 656.479Z" fill="white"/>
<path d="M609.931 448.672C595.777 456.844 587.098 466.494 583.902 477.603C580.706 488.711 583.122 501.219 591.144 515.113L694.12 693.473C702.142 707.367 711.766 715.714 722.984 718.5C734.202 721.286 746.886 718.603 761.054 710.424C775.222 702.244 783.873 692.609 787.083 681.493C790.279 670.384 787.863 657.877 779.841 643.983L746.409 586.077L713.209 605.245L746.641 663.151C748.421 666.234 749.033 669.224 748.476 672.121C747.92 675.018 746.09 677.354 743.007 679.134C739.924 680.914 736.978 681.317 734.199 680.364C731.412 679.397 729.128 677.372 727.348 674.289L624.371 495.929C622.591 492.846 621.972 489.842 622.536 486.958C623.092 484.061 624.922 481.726 628.005 479.946C631.088 478.166 634.026 477.748 636.813 478.715C639.601 479.682 641.884 481.707 643.664 484.79L682.222 551.574L715.422 532.406L676.864 465.622C668.843 451.728 659.219 443.381 648.001 440.595C636.782 437.809 624.085 440.5 609.931 448.672Z" fill="white"/>
<path d="M756.836 410.699L738.783 379.431L701.719 400.83L701.335 401.051L668.519 419.998L815.188 674.036L848.004 655.089L848.388 654.867L885.452 633.468L867.391 602.186L830.327 623.586L778.843 534.412L812.043 515.244L793.761 483.578L760.561 502.746L719.772 432.098L756.836 410.699Z" fill="white"/>
<path d="M893.269 604.382L912.214 601.501L913.361 603.488L901.393 618.454L916.849 609.531L919.484 614.093L898.013 626.49L894.318 620.091L904.713 607.147L888.306 609.677L884.588 603.237L906.059 590.841L908.717 595.445L893.261 604.368L893.269 604.382Z" fill="white"/>
<path d="M886.45 565.422L891.988 575.014L896.471 574.235L899.366 579.25L873.101 583.342L869.794 577.615L886.495 556.956L889.375 561.944L886.458 565.436L886.45 565.422ZM887.324 576.081L883.218 568.969L875.407 578.192L887.316 576.067L887.324 576.081Z" fill="white"/>
<path d="M862.708 549.075L877.137 540.745L879.771 545.308L858.3 557.705L855.586 553.005L863.759 535.041L849.851 543.071L847.217 538.508L868.688 526.111L871.235 530.523L862.708 549.075Z" fill="white"/>
<path d="M839.195 524.615L836.561 520.052L858.032 507.655L860.666 512.218L839.195 524.615Z" fill="white"/>
<path d="M828.539 506.158L819.773 490.976L823.706 488.705L829.837 499.324L834.509 496.627L828.513 486.24L832.445 483.97L838.442 494.356L847.389 489.19L850.024 493.753L828.552 506.15L828.539 506.158Z" fill="white"/>
<path d="M812.369 478.152L803.604 462.97L807.536 460.699L813.667 471.318L818.339 468.621L812.343 458.235L816.275 455.964L822.272 466.35L827.26 463.471L821.129 452.852L825.088 450.565L833.854 465.747L812.383 478.144L812.369 478.152Z" fill="white"/>
<path d="M810.339 440.08C811.044 437.663 810.999 434.547 809.29 431.587C807.843 429.08 805.947 428.548 804.727 429.252C803.11 430.186 803.652 432.358 804.494 435.178C805.711 439.153 807.347 444.201 802.551 446.97C798.975 449.034 794.304 447.621 791.385 442.564C789.415 439.153 788.813 435.737 789.56 432.474L794.367 433.078C793.768 435.744 794.351 438.495 795.554 440.578C796.756 442.66 798.278 443.207 799.566 442.463C801.018 441.625 800.434 439.569 799.578 436.756C798.345 432.754 796.797 427.637 801.566 424.884C805.498 422.614 810.072 423.7 813.418 429.496C815.791 433.607 816.116 437.366 815.259 440.564L810.331 440.066L810.339 440.08Z" fill="white"/>
<path d="M780.539 413.749L784.162 420.024L780.134 422.35L770.253 405.236L774.281 402.911L777.881 409.145L795.337 399.066L797.995 403.67L780.539 413.749Z" fill="white"/>
<path d="M757.229 383.469C753.48 376.974 755.382 369.573 761.863 365.831C768.344 362.089 775.704 364.143 779.454 370.638C783.204 377.132 781.286 384.506 774.805 388.248C768.324 391.99 760.963 389.937 757.229 383.469ZM761.285 381.127C763.571 385.087 768.063 385.874 772.092 383.548C776.12 381.222 777.685 376.939 775.398 372.979C773.112 369.019 768.577 368.221 764.576 370.531C760.575 372.841 759.007 377.181 761.285 381.127Z" fill="white"/>
</g>
<path d="M58.96 1228.04H48.48L46.8 1233H39.64L49.8 1204.92H57.72L67.88 1233H60.64L58.96 1228.04ZM57.2 1222.76L53.72 1212.48L50.28 1222.76H57.2ZM87.4922 1204.92C90.4522 1204.92 93.0389 1205.51 95.2522 1206.68C97.4655 1207.85 99.1722 1209.51 100.372 1211.64C101.599 1213.75 102.212 1216.19 102.212 1218.96C102.212 1221.71 101.599 1224.15 100.372 1226.28C99.1722 1228.41 97.4522 1230.07 95.2122 1231.24C92.9989 1232.41 90.4255 1233 87.4922 1233H76.9722V1204.92H87.4922ZM87.0522 1227.08C89.6389 1227.08 91.6522 1226.37 93.0922 1224.96C94.5322 1223.55 95.2522 1221.55 95.2522 1218.96C95.2522 1216.37 94.5322 1214.36 93.0922 1212.92C91.6522 1211.48 89.6389 1210.76 87.0522 1210.76H83.8122V1227.08H87.0522ZM138.395 1204.92L128.435 1233H119.875L109.915 1204.92H117.195L124.155 1226.12L131.155 1204.92H138.395ZM164.733 1228.04H154.253L152.573 1233H145.413L155.573 1204.92H163.493L173.653 1233H166.413L164.733 1228.04ZM162.973 1222.76L159.493 1212.48L156.053 1222.76H162.973ZM207.866 1233H201.026L189.586 1215.68V1233H182.746V1204.92H189.586L201.026 1222.32V1204.92H207.866V1233ZM217.664 1218.92C217.664 1216.15 218.264 1213.68 219.464 1211.52C220.664 1209.33 222.33 1207.64 224.464 1206.44C226.624 1205.21 229.064 1204.6 231.784 1204.6C235.117 1204.6 237.97 1205.48 240.344 1207.24C242.717 1209 244.304 1211.4 245.104 1214.44H237.584C237.024 1213.27 236.224 1212.37 235.184 1211.76C234.17 1211.15 233.01 1210.84 231.704 1210.84C229.597 1210.84 227.89 1211.57 226.584 1213.04C225.277 1214.51 224.624 1216.47 224.624 1218.92C224.624 1221.37 225.277 1223.33 226.584 1224.8C227.89 1226.27 229.597 1227 231.704 1227C233.01 1227 234.17 1226.69 235.184 1226.08C236.224 1225.47 237.024 1224.57 237.584 1223.4H245.104C244.304 1226.44 242.717 1228.84 240.344 1230.6C237.97 1232.33 235.117 1233.2 231.784 1233.2C229.064 1233.2 226.624 1232.6 224.464 1231.4C222.33 1230.17 220.664 1228.48 219.464 1226.32C218.264 1224.16 217.664 1221.69 217.664 1218.92ZM262.133 1210.4V1216.08H271.293V1221.36H262.133V1227.52H272.493V1233H255.293V1204.92H272.493V1210.4H262.133ZM314.733 1204.92V1233H307.893V1216.16L301.613 1233H296.093L289.773 1216.12V1233H282.933V1204.92H291.013L298.893 1224.36L306.693 1204.92H314.733ZM343.132 1228.04H332.652L330.972 1233H323.812L333.972 1204.92H341.892L352.052 1233H344.812L343.132 1228.04ZM341.372 1222.76L337.892 1212.48L334.452 1222.76H341.372ZM386.264 1233H379.424L367.984 1215.68V1233H361.144V1204.92H367.984L379.424 1222.32V1204.92H386.264V1233ZM404.062 1204.92V1233H397.222V1204.92H404.062ZM433.299 1204.92V1210.4H421.859V1216.32H430.419V1221.64H421.859V1233H415.019V1204.92H433.299ZM449.734 1210.4V1216.08H458.894V1221.36H449.734V1227.52H460.094V1233H442.894V1204.92H460.094V1210.4H449.734ZM480.695 1233.28C478.641 1233.28 476.801 1232.95 475.175 1232.28C473.548 1231.61 472.241 1230.63 471.255 1229.32C470.295 1228.01 469.788 1226.44 469.735 1224.6H477.015C477.121 1225.64 477.481 1226.44 478.095 1227C478.708 1227.53 479.508 1227.8 480.495 1227.8C481.508 1227.8 482.308 1227.57 482.895 1227.12C483.481 1226.64 483.775 1225.99 483.775 1225.16C483.775 1224.47 483.535 1223.89 483.055 1223.44C482.601 1222.99 482.028 1222.61 481.335 1222.32C480.668 1222.03 479.708 1221.69 478.455 1221.32C476.641 1220.76 475.161 1220.2 474.015 1219.64C472.868 1219.08 471.881 1218.25 471.055 1217.16C470.228 1216.07 469.815 1214.64 469.815 1212.88C469.815 1210.27 470.761 1208.23 472.655 1206.76C474.548 1205.27 477.015 1204.52 480.055 1204.52C483.148 1204.52 485.641 1205.27 487.535 1206.76C489.428 1208.23 490.441 1210.28 490.575 1212.92H483.175C483.121 1212.01 482.788 1211.31 482.175 1210.8C481.561 1210.27 480.775 1210 479.815 1210C478.988 1210 478.321 1210.23 477.815 1210.68C477.308 1211.11 477.055 1211.73 477.055 1212.56C477.055 1213.47 477.481 1214.17 478.335 1214.68C479.188 1215.19 480.521 1215.73 482.335 1216.32C484.148 1216.93 485.615 1217.52 486.735 1218.08C487.881 1218.64 488.868 1219.45 489.695 1220.52C490.521 1221.59 490.935 1222.96 490.935 1224.64C490.935 1226.24 490.521 1227.69 489.695 1229C488.895 1230.31 487.721 1231.35 486.175 1232.12C484.628 1232.89 482.801 1233.28 480.695 1233.28ZM521.344 1204.92V1210.4H513.904V1233H507.064V1210.4H499.624V1204.92H521.344ZM544.057 1233.28C541.417 1233.28 538.99 1232.67 536.777 1231.44C534.59 1230.21 532.844 1228.51 531.537 1226.32C530.257 1224.11 529.617 1221.63 529.617 1218.88C529.617 1216.13 530.257 1213.67 531.537 1211.48C532.844 1209.29 534.59 1207.59 536.777 1206.36C538.99 1205.13 541.417 1204.52 544.057 1204.52C546.697 1204.52 549.11 1205.13 551.297 1206.36C553.51 1207.59 555.244 1209.29 556.497 1211.48C557.777 1213.67 558.417 1216.13 558.417 1218.88C558.417 1221.63 557.777 1224.11 556.497 1226.32C555.217 1228.51 553.484 1230.21 551.297 1231.44C549.11 1232.67 546.697 1233.28 544.057 1233.28ZM544.057 1227.04C546.297 1227.04 548.084 1226.29 549.417 1224.8C550.777 1223.31 551.457 1221.33 551.457 1218.88C551.457 1216.4 550.777 1214.43 549.417 1212.96C548.084 1211.47 546.297 1210.72 544.057 1210.72C541.79 1210.72 539.977 1211.45 538.617 1212.92C537.284 1214.39 536.617 1216.37 536.617 1218.88C536.617 1221.36 537.284 1223.35 538.617 1224.84C539.977 1226.31 541.79 1227.04 544.057 1227.04ZM571.422 1233.32C570.222 1233.32 569.236 1232.97 568.462 1232.28C567.716 1231.56 567.342 1230.68 567.342 1229.64C567.342 1228.57 567.716 1227.68 568.462 1226.96C569.236 1226.24 570.222 1225.88 571.422 1225.88C572.596 1225.88 573.556 1226.24 574.302 1226.96C575.076 1227.68 575.462 1228.57 575.462 1229.64C575.462 1230.68 575.076 1231.56 574.302 1232.28C573.556 1232.97 572.596 1233.32 571.422 1233.32ZM584.351 1218.92C584.351 1216.15 584.951 1213.68 586.151 1211.52C587.351 1209.33 589.018 1207.64 591.151 1206.44C593.311 1205.21 595.751 1204.6 598.471 1204.6C601.805 1204.6 604.658 1205.48 607.031 1207.24C609.405 1209 610.991 1211.4 611.791 1214.44H604.271C603.711 1213.27 602.911 1212.37 601.871 1211.76C600.858 1211.15 599.698 1210.84 598.391 1210.84C596.285 1210.84 594.578 1211.57 593.271 1213.04C591.965 1214.51 591.311 1216.47 591.311 1218.92C591.311 1221.37 591.965 1223.33 593.271 1224.8C594.578 1226.27 596.285 1227 598.391 1227C599.698 1227 600.858 1226.69 601.871 1226.08C602.911 1225.47 603.711 1224.57 604.271 1223.4H611.791C610.991 1226.44 609.405 1228.84 607.031 1230.6C604.658 1232.33 601.805 1233.2 598.471 1233.2C595.751 1233.2 593.311 1232.6 591.151 1231.4C589.018 1230.17 587.351 1228.48 586.151 1226.32C584.951 1224.16 584.351 1221.69 584.351 1218.92ZM635.26 1233.28C632.62 1233.28 630.193 1232.67 627.98 1231.44C625.793 1230.21 624.047 1228.51 622.74 1226.32C621.46 1224.11 620.82 1221.63 620.82 1218.88C620.82 1216.13 621.46 1213.67 622.74 1211.48C624.047 1209.29 625.793 1207.59 627.98 1206.36C630.193 1205.13 632.62 1204.52 635.26 1204.52C637.9 1204.52 640.313 1205.13 642.5 1206.36C644.713 1207.59 646.447 1209.29 647.7 1211.48C648.98 1213.67 649.62 1216.13 649.62 1218.88C649.62 1221.63 648.98 1224.11 647.7 1226.32C646.42 1228.51 644.687 1230.21 642.5 1231.44C640.313 1232.67 637.9 1233.28 635.26 1233.28ZM635.26 1227.04C637.5 1227.04 639.287 1226.29 640.62 1224.8C641.98 1223.31 642.66 1221.33 642.66 1218.88C642.66 1216.4 641.98 1214.43 640.62 1212.96C639.287 1211.47 637.5 1210.72 635.26 1210.72C632.993 1210.72 631.18 1211.45 629.82 1212.92C628.487 1214.39 627.82 1216.37 627.82 1218.88C627.82 1221.36 628.487 1223.35 629.82 1224.84C631.18 1226.31 632.993 1227.04 635.26 1227.04ZM691.225 1204.92V1233H684.385V1216.16L678.105 1233H672.585L666.265 1216.12V1233H659.425V1204.92H667.505L675.385 1224.36L683.185 1204.92H691.225Z" fill="#222222"/>
<defs>
<clipPath id="clip0_438_3">
<rect width="802.343" height="302.245" fill="white" transform="translate(145.616 33)"/>
</clipPath>
<clipPath id="clip1_438_3">
<rect width="802.343" height="302.245" fill="white" transform="translate(1250.03 387.41) rotate(90)"/>
</clipPath>
<clipPath id="clip2_438_3">
<rect width="802.343" height="302.245" fill="white" transform="translate(76 756.937) rotate(-30)"/>
</clipPath>
</defs>
</svg>
