<svg width="1280" height="1280" viewBox="0 0 1280 1280" fill="none" xmlns="http://www.w3.org/2000/svg">
<rect width="1280" height="1280" fill="#222222"/>
<g clip-path="url(#clip0_438_65)">
<path d="M194.168 168.259L166.325 514.005H211.511L215.614 440.977H244.184L248.286 514.005H293.994L265.629 168.259H194.168ZM218.001 398.402L229.899 186.534L241.797 398.402H218.001Z" fill="white"/>
<path d="M369.671 168.258H308.727V514.004H369.671C387.536 514.004 401.28 509.267 410.921 499.812C420.544 490.357 425.374 476.52 425.374 458.3V223.943C425.374 205.742 420.563 191.886 410.921 182.431C401.28 172.976 387.536 168.239 369.671 168.239V168.258ZM380.188 457.778C380.188 461.974 379.144 465.312 377.037 467.755C374.93 470.217 371.778 471.429 367.582 471.429H353.912V210.814H367.582C371.778 210.814 374.93 212.045 377.037 214.488C379.144 216.95 380.188 220.269 380.188 224.465V457.76V457.778Z" fill="white"/>
<path d="M517.834 168.259L499.447 491.831L481.059 168.259H435.873L463.716 514.005H535.177L563.561 168.259H517.834Z" fill="white"/>
<path d="M584.578 168.259L556.735 514.005H601.921L606.023 440.977H634.593L638.696 514.005H684.404L656.039 168.259H584.578ZM608.41 398.402L620.308 186.534L632.206 398.402H608.41Z" fill="white"/>
<path d="M781.862 381.655L734.326 168.259H697.532V514.005H742.737L733.021 305.438L780.556 514.005H817.35V168.259H772.146L781.862 381.655Z" fill="white"/>
<path d="M893.008 163C873.743 163 859.198 167.737 849.388 177.192C839.579 186.646 834.675 200.838 834.675 219.748V462.497C834.675 481.407 839.579 495.599 849.388 505.054C859.198 514.508 873.725 519.245 893.008 519.245C912.29 519.245 926.799 514.508 936.627 505.054C946.436 495.599 951.34 481.407 951.34 462.497V383.688H906.155V462.497C906.155 466.693 905.017 470.106 902.742 472.735C900.467 475.365 897.222 476.67 893.026 476.67C888.83 476.67 885.585 475.346 883.31 472.735C881.035 470.106 879.898 466.693 879.898 462.497V219.748C879.898 215.552 881.035 212.121 883.31 209.51C885.585 206.88 888.83 205.575 893.026 205.575C897.222 205.575 900.467 206.88 902.742 209.51C905.017 212.139 906.155 215.552 906.155 219.748V310.641H951.34V219.748C951.34 200.838 946.436 186.646 936.627 177.192C926.817 167.737 912.272 163 893.008 163Z" fill="white"/>
<path d="M1065.34 210.815V168.259H1014.89H1014.37H969.709V514.005H1014.37H1014.89H1065.34V471.43H1014.89V350.064H1060.08V306.967H1014.89V210.815H1065.34Z" fill="white"/>
<path d="M1090.46 488.921L1111.49 497.145V499.849L1090.46 508.073H1111.49V514.283H1082.27V505.575L1100.51 498.488L1082.27 491.402V482.637H1111.49V488.903H1090.46V488.921Z" fill="white"/>
<path d="M1106.46 445.134V458.188L1111.49 460.035V466.86L1082.27 455.559V447.764L1111.49 436.519V443.307L1106.46 445.153V445.134ZM1101.07 456.529V446.85L1087.66 451.661L1101.07 456.51V456.529Z" fill="white"/>
<path d="M1091.86 414.458H1111.49V420.668H1082.27V414.271L1101.2 400.751H1082.27V394.541H1111.49V400.546L1091.86 414.458Z" fill="white"/>
<path d="M1082.27 375.63V369.42H1111.49V375.63H1082.27Z" fill="white"/>
<path d="M1082.27 350.509V329.847H1087.62V344.299H1093.98V330.164H1099.34V344.299H1111.51V350.509H1082.29H1082.27Z" fill="white"/>
<path d="M1082.27 312.393V291.73H1087.62V306.183H1093.98V292.047H1099.34V306.183H1106.12V291.73H1111.51V312.393H1082.29H1082.27Z" fill="white"/>
<path d="M1102.64 272.336C1104.78 270.284 1106.57 267.077 1106.57 263.049C1106.57 259.636 1104.95 257.976 1103.29 257.976C1101.09 257.976 1100.36 260.512 1099.56 263.888C1098.46 268.662 1097.15 274.779 1090.63 274.779C1085.76 274.779 1081.82 270.583 1081.82 263.701C1081.82 259.058 1083.22 255.216 1085.91 252.326L1090.46 255.776C1088.28 258.144 1087.25 261.296 1087.25 264.13C1087.25 266.965 1088.48 268.419 1090.24 268.419C1092.21 268.419 1092.83 265.976 1093.61 262.601C1094.71 257.79 1096.15 251.654 1102.64 251.654C1107.99 251.654 1112.02 255.459 1112.02 263.347C1112.02 268.942 1110.13 272.97 1107.37 275.73L1102.64 272.317V272.336Z" fill="white"/>
<path d="M1087.74 227.896V236.437H1082.25V213.145H1087.74V221.63H1111.49V227.896H1087.74Z" fill="white"/>
<path d="M1081.79 183.251C1081.79 174.411 1088.09 167.978 1096.91 167.978C1105.73 167.978 1112.04 174.411 1112.04 183.251C1112.04 192.09 1105.73 198.487 1096.91 198.487C1088.09 198.487 1081.79 192.053 1081.79 183.251ZM1087.31 183.251C1087.31 188.64 1091.43 192.09 1096.91 192.09C1102.39 192.09 1106.52 188.64 1106.52 183.251C1106.52 177.861 1102.36 174.374 1096.91 174.374C1091.47 174.374 1087.31 177.88 1087.31 183.251Z" fill="white"/>
</g>
<path d="M260 678.689C259.106 683.892 257.073 688.647 253.903 692.956C250.814 697.183 246.627 700.597 241.343 703.199C236.059 705.719 229.922 706.979 222.931 706.979H211.103L205.981 736H181.959L197.202 650.033H232.93C241.953 650.033 248.822 652.106 253.537 656.252C258.252 660.317 260.61 665.804 260.61 672.714C260.61 674.421 260.406 676.413 260 678.689ZM224.028 688.078C230.775 688.078 234.677 684.948 235.734 678.689C235.897 677.551 235.978 676.738 235.978 676.25C235.978 674.055 235.246 672.348 233.783 671.129C232.401 669.828 230.247 669.178 227.32 669.178H217.809L214.517 688.078H224.028ZM286.795 717.831H313.499L310.207 736H259.481L274.723 650.033H298.623L286.795 717.831ZM355.228 668.934L352.789 683.201H380.226L376.933 701.369H349.497L346.692 716.978H377.787L374.494 736H319.378L334.621 650.033H389.615L386.323 668.934H355.228ZM435.446 650.033C443.331 650.033 450.16 651.456 455.931 654.301C461.703 657.065 466.093 661.008 469.101 666.129C472.109 671.251 473.612 677.226 473.612 684.054C473.612 687.143 473.328 690.11 472.759 692.956C471.296 701.248 468.125 708.645 463.248 715.149C458.451 721.652 452.314 726.773 444.835 730.513C437.437 734.171 429.227 736 420.203 736H386.182L401.425 650.033H435.446ZM422.154 715.027C429.145 715.027 434.958 713.116 439.592 709.295C444.225 705.393 447.192 699.947 448.493 692.956C448.818 691.33 448.981 689.582 448.981 687.712C448.981 682.266 447.314 678.079 443.981 675.153C440.648 672.226 435.974 670.763 429.958 670.763H421.789L413.863 715.027H422.154ZM480.606 692.834C482.069 684.379 485.199 676.86 489.995 670.275C494.791 663.609 500.807 658.447 508.042 654.789C515.277 651.049 523.203 649.18 531.82 649.18C542.632 649.18 551.086 651.781 557.183 656.984C563.361 662.187 566.532 669.3 566.694 678.323H540.965C540.071 676.047 538.527 674.299 536.332 673.08C534.137 671.86 531.373 671.251 528.04 671.251C522.106 671.251 517.025 673.202 512.798 677.104C508.652 681.006 506.01 686.249 504.872 692.834C504.465 695.273 504.262 697.305 504.262 698.931C504.262 704.377 505.806 708.523 508.896 711.368C511.985 714.132 516.537 715.514 522.553 715.514C530.926 715.514 537.592 711.734 542.551 704.174H518.529L521.577 686.981H566.207L562.061 710.149C557.834 717.384 551.777 723.603 543.892 728.806C536.007 734.008 526.902 736.61 516.578 736.61C508.936 736.61 502.351 735.187 496.824 732.342C491.296 729.415 487.069 725.351 484.142 720.148C481.215 714.945 479.752 708.93 479.752 702.101C479.752 698.849 480.037 695.76 480.606 692.834ZM603.988 668.934L601.549 683.201H628.985L625.693 701.369H598.256L595.452 716.978H626.546L623.254 736H568.138L583.38 650.033H638.374L635.082 668.934H603.988ZM739.464 650.033L736.05 669.056H713.247L701.419 736H677.397L689.225 669.056H666.545L669.959 650.033H739.464ZM774.645 736.854C767.41 736.854 761.029 735.35 755.501 732.342C749.973 729.334 745.705 725.107 742.697 719.66C739.69 714.214 738.186 707.954 738.186 700.882C738.186 690.72 740.299 681.697 744.527 673.811C748.835 665.845 754.81 659.666 762.451 655.277C770.174 650.887 778.994 648.692 788.912 648.692C796.31 648.692 802.772 650.196 808.3 653.204C813.91 656.13 818.218 660.317 821.226 665.763C824.234 671.129 825.738 677.348 825.738 684.42C825.738 694.5 823.583 703.524 819.275 711.49C814.966 719.457 808.951 725.676 801.228 730.147C793.505 734.618 784.644 736.854 774.645 736.854ZM778.303 714.661C783.1 714.661 787.286 713.401 790.863 710.881C794.521 708.361 797.285 705.028 799.155 700.882C801.106 696.654 802.082 692.102 802.082 687.225C802.082 682.022 800.659 677.998 797.814 675.153C795.05 672.226 791.066 670.763 785.864 670.763C781.067 670.763 776.84 672.023 773.182 674.543C769.524 676.982 766.719 680.274 764.768 684.42C762.817 688.566 761.842 693.118 761.842 698.077C761.842 703.199 763.264 707.263 766.11 710.271C768.955 713.197 773.019 714.661 778.303 714.661ZM878.306 650.033C886.192 650.033 893.02 651.456 898.792 654.301C904.564 657.065 908.954 661.008 911.962 666.129C914.969 671.251 916.473 677.226 916.473 684.054C916.473 687.143 916.189 690.11 915.62 692.956C914.156 701.248 910.986 708.645 906.108 715.149C901.312 721.652 895.175 726.773 887.696 730.513C880.298 734.171 872.088 736 863.064 736H829.043L844.286 650.033H878.306ZM865.015 715.027C872.006 715.027 877.819 713.116 882.452 709.295C887.086 705.393 890.053 699.947 891.354 692.956C891.679 691.33 891.842 689.582 891.842 687.712C891.842 682.266 890.175 678.079 886.842 675.153C883.509 672.226 878.835 670.763 872.819 670.763H864.649L856.723 715.027H865.015ZM975.656 721.977H945.172L938.099 736H912.98L959.438 650.033H986.997L1003.09 736H977.851L975.656 721.977ZM972.852 703.808L968.584 675.884L954.439 703.808H972.852ZM1104.17 650.033L1063.56 708.686L1058.68 736H1034.78L1039.54 708.686L1019.66 650.033H1046.98L1056.24 683.323L1077.22 650.033H1104.17Z" fill="#FD6119"/>
<path d="M392 868C490.806 875.771 727.985 886.651 886.252 868" stroke="white" stroke-width="21.3154" stroke-linecap="round"/>
<path d="M729.055 877.989C646.679 895.53 471.271 932.479 415.318 934.611C345.377 937.275 634.882 934.611 770.353 934.611C904.907 934.611 732.385 953.926 585.842 969.246" stroke="white" stroke-width="21.3154" stroke-linecap="round"/>
<path d="M171.49 1120.5H151.567L146.64 1130H136.143L162.921 1080.09H174.561L183.629 1130H173.061L171.49 1120.5ZM170.205 1112.72L166.634 1091.58L155.638 1112.72H170.205ZM219.463 1080.16C224.081 1080.16 228.056 1080.97 231.388 1082.59C234.768 1084.16 237.338 1086.42 239.1 1089.37C240.909 1092.32 241.813 1095.82 241.813 1099.87C241.813 1101.68 241.647 1103.44 241.313 1105.15C240.457 1110.15 238.6 1114.53 235.744 1118.29C232.935 1122 229.365 1124.88 225.033 1126.93C220.701 1128.98 215.892 1130 210.608 1130H193.185L202.039 1080.16H219.463ZM211.751 1121.86C216.987 1121.86 221.272 1120.38 224.604 1117.43C227.984 1114.48 230.15 1110.39 231.102 1105.15C231.34 1103.58 231.459 1102.22 231.459 1101.08C231.459 1097.08 230.269 1093.99 227.889 1091.8C225.556 1089.61 222.129 1088.51 217.606 1088.51H210.608L204.753 1121.86H211.751ZM262.864 1080.16L269.505 1119.79L290.213 1080.16H300.853L273.789 1130H261.65L252.153 1080.16H262.864ZM333.124 1120.5H313.202L308.275 1130H297.778L324.555 1080.09H336.195L345.263 1130H334.695L333.124 1120.5ZM331.839 1112.72L328.269 1091.58L317.272 1112.72H331.839ZM397.521 1130H387.452L370.957 1095.8L364.888 1130H354.819L363.674 1080.09H373.671L390.237 1114.36L396.307 1080.09H406.304L397.521 1130ZM412.256 1105.01C413.113 1100.1 414.969 1095.72 417.826 1091.87C420.729 1087.96 424.276 1084.94 428.465 1082.8C432.702 1080.61 437.201 1079.52 441.961 1079.52C447.531 1079.52 452.172 1080.94 455.886 1083.8C459.599 1086.66 461.836 1090.61 462.598 1095.65H451.101C450.34 1093.37 449.03 1091.65 447.174 1090.51C445.317 1089.32 443.032 1088.73 440.319 1088.73C437.415 1088.73 434.701 1089.39 432.178 1090.73C429.703 1092.06 427.608 1093.96 425.895 1096.44C424.228 1098.91 423.11 1101.77 422.538 1105.01C422.3 1106.53 422.181 1107.79 422.181 1108.79C422.181 1112.65 423.276 1115.69 425.466 1117.93C427.704 1120.17 430.726 1121.29 434.535 1121.29C437.248 1121.29 439.748 1120.69 442.033 1119.5C444.318 1118.31 446.246 1116.58 447.817 1114.29H459.313C456.742 1119.38 453.101 1123.36 448.388 1126.22C443.723 1129.02 438.605 1130.43 433.035 1130.43C428.846 1130.43 425.133 1129.6 421.896 1127.93C418.706 1126.22 416.231 1123.81 414.469 1120.72C412.708 1117.62 411.827 1114.08 411.827 1110.08C411.827 1108.41 411.97 1106.72 412.256 1105.01ZM485.347 1087.94L483.062 1100.87H499.842L498.486 1108.58H481.705L479.348 1122.07H498.271L496.843 1130H467.852L476.706 1080.09H505.626L504.27 1087.94H485.347ZM571.908 1080.16L563.125 1130H553.057L558.769 1097.72L539.775 1130H532.135L524.494 1097.65L518.781 1130H508.713L517.568 1080.16H528.921L538.276 1117.15L560.555 1080.16H571.908ZM608.07 1120.5H588.147L583.22 1130H572.723L599.501 1080.09H611.141L620.209 1130H609.641L608.07 1120.5ZM606.785 1112.72L603.214 1091.58L592.218 1112.72H606.785ZM672.467 1130H662.398L645.903 1095.8L639.833 1130H629.765L638.62 1080.09H648.617L665.183 1114.36L671.253 1080.09H681.25L672.467 1130ZM703.982 1080.16L695.199 1130H685.131L693.985 1080.16H703.982ZM747.492 1080.16L746.064 1088.01H725.356L723.071 1101.08H738.923L737.567 1108.79H721.643L717.93 1130H707.861L716.716 1080.16H747.492ZM766.078 1087.94L763.793 1100.87H780.573L779.217 1108.58H762.436L760.079 1122.07H779.002L777.574 1130H748.583L757.437 1080.09H786.357L785.001 1087.94H766.078ZM808.367 1130.5C803.368 1130.5 799.251 1129.38 796.013 1127.14C792.824 1124.86 791.229 1121.67 791.229 1117.58C791.229 1117.15 791.277 1116.5 791.372 1115.65H801.583C801.393 1117.65 801.916 1119.29 803.154 1120.57C804.439 1121.86 806.296 1122.5 808.724 1122.5C811.152 1122.5 813.056 1122 814.437 1121C815.865 1119.96 816.579 1118.48 816.579 1116.58C816.579 1114.81 815.841 1113.41 814.365 1112.36C812.937 1111.32 810.676 1110.15 807.581 1108.86C804.725 1107.67 802.392 1106.58 800.583 1105.58C798.822 1104.58 797.299 1103.2 796.013 1101.44C794.776 1099.63 794.157 1097.37 794.157 1094.65C794.157 1091.56 794.942 1088.87 796.513 1086.58C798.132 1084.3 800.322 1082.54 803.083 1081.3C805.891 1080.06 809.081 1079.44 812.651 1079.44C816.174 1079.44 819.221 1080.04 821.791 1081.23C824.41 1082.37 826.362 1084.01 827.647 1086.16C828.98 1088.3 829.551 1090.8 829.361 1093.65H818.721L818.792 1092.87C818.792 1091.3 818.197 1090.01 817.007 1089.01C815.865 1088.01 814.246 1087.51 812.151 1087.51C809.914 1087.51 808.105 1088.04 806.725 1089.08C805.344 1090.13 804.654 1091.56 804.654 1093.37C804.654 1094.56 805.035 1095.61 805.796 1096.51C806.606 1097.37 807.581 1098.13 808.724 1098.8C809.866 1099.41 811.509 1100.22 813.651 1101.22C816.46 1102.46 818.769 1103.63 820.578 1104.72C822.387 1105.82 823.934 1107.27 825.219 1109.08C826.504 1110.89 827.147 1113.1 827.147 1115.72C827.147 1118.57 826.362 1121.12 824.791 1123.36C823.267 1125.6 821.077 1127.36 818.221 1128.64C815.412 1129.88 812.128 1130.5 808.367 1130.5ZM878.657 1080.16L877.229 1088.01H864.018L856.592 1130H846.523L853.95 1088.01H840.668L842.096 1080.16H878.657ZM903.303 1130.5C899.114 1130.5 895.4 1129.62 892.163 1127.86C888.974 1126.05 886.498 1123.57 884.737 1120.43C882.976 1117.24 882.095 1113.6 882.095 1109.51C882.095 1103.79 883.356 1098.65 885.879 1094.08C888.45 1089.51 891.973 1085.94 896.448 1083.37C900.97 1080.75 906.04 1079.44 911.657 1079.44C915.894 1079.44 919.607 1080.32 922.797 1082.09C926.034 1083.85 928.533 1086.32 930.295 1089.51C932.056 1092.65 932.937 1096.25 932.937 1100.29C932.937 1106.1 931.675 1111.29 929.152 1115.86C926.629 1120.43 923.106 1124.03 918.584 1126.64C914.062 1129.21 908.968 1130.5 903.303 1130.5ZM904.731 1121.29C908.301 1121.29 911.443 1120.38 914.157 1118.57C916.918 1116.77 919.036 1114.34 920.512 1111.29C922.035 1108.2 922.797 1104.84 922.797 1101.22C922.797 1097.32 921.702 1094.25 919.512 1092.01C917.322 1089.77 914.252 1088.66 910.301 1088.66C906.778 1088.66 903.636 1089.56 900.875 1091.37C898.161 1093.18 896.043 1095.61 894.52 1098.65C893.044 1101.7 892.306 1105.03 892.306 1108.65C892.306 1112.55 893.377 1115.65 895.519 1117.93C897.709 1120.17 900.78 1121.29 904.731 1121.29ZM943.231 1130.5C941.66 1130.5 940.398 1130.05 939.446 1129.14C938.494 1128.24 938.018 1127.1 938.018 1125.72C938.018 1123.81 938.732 1122.19 940.16 1120.86C941.636 1119.48 943.35 1118.79 945.301 1118.79C946.872 1118.79 948.11 1119.24 949.015 1120.15C949.967 1121 950.443 1122.15 950.443 1123.57C950.443 1125.48 949.729 1127.12 948.301 1128.5C946.872 1129.83 945.182 1130.5 943.231 1130.5ZM962.351 1105.01C963.208 1100.1 965.064 1095.72 967.921 1091.87C970.825 1087.96 974.371 1084.94 978.56 1082.8C982.797 1080.61 987.296 1079.52 992.056 1079.52C997.626 1079.52 1002.27 1080.94 1005.98 1083.8C1009.69 1086.66 1011.93 1090.61 1012.69 1095.65H1001.2C1000.43 1093.37 999.126 1091.65 997.269 1090.51C995.413 1089.32 993.128 1088.73 990.414 1088.73C987.51 1088.73 984.797 1089.39 982.274 1090.73C979.798 1092.06 977.704 1093.96 975.99 1096.44C974.324 1098.91 973.205 1101.77 972.634 1105.01C972.396 1106.53 972.277 1107.79 972.277 1108.79C972.277 1112.65 973.372 1115.69 975.561 1117.93C977.799 1120.17 980.822 1121.29 984.63 1121.29C987.344 1121.29 989.843 1120.69 992.128 1119.5C994.413 1118.31 996.341 1116.58 997.912 1114.29H1009.41C1006.84 1119.38 1003.2 1123.36 998.483 1126.22C993.818 1129.02 988.7 1130.43 983.131 1130.43C978.941 1130.43 975.228 1129.6 971.991 1127.93C968.801 1126.22 966.326 1123.81 964.565 1120.72C962.803 1117.62 961.923 1114.08 961.923 1110.08C961.923 1108.41 962.065 1106.72 962.351 1105.01ZM1041.3 1130.5C1037.11 1130.5 1033.39 1129.62 1030.16 1127.86C1026.97 1126.05 1024.49 1123.57 1022.73 1120.43C1020.97 1117.24 1020.09 1113.6 1020.09 1109.51C1020.09 1103.79 1021.35 1098.65 1023.87 1094.08C1026.44 1089.51 1029.97 1085.94 1034.44 1083.37C1038.96 1080.75 1044.03 1079.44 1049.65 1079.44C1053.89 1079.44 1057.6 1080.32 1060.79 1082.09C1064.03 1083.85 1066.53 1086.32 1068.29 1089.51C1070.05 1092.65 1070.93 1096.25 1070.93 1100.29C1070.93 1106.1 1069.67 1111.29 1067.15 1115.86C1064.62 1120.43 1061.1 1124.03 1056.58 1126.64C1052.06 1129.21 1046.96 1130.5 1041.3 1130.5ZM1042.73 1121.29C1046.3 1121.29 1049.44 1120.38 1052.15 1118.57C1054.91 1116.77 1057.03 1114.34 1058.51 1111.29C1060.03 1108.2 1060.79 1104.84 1060.79 1101.22C1060.79 1097.32 1059.7 1094.25 1057.51 1092.01C1055.32 1089.77 1052.25 1088.66 1048.3 1088.66C1044.77 1088.66 1041.63 1089.56 1038.87 1091.37C1036.16 1093.18 1034.04 1095.61 1032.51 1098.65C1031.04 1101.7 1030.3 1105.03 1030.3 1108.65C1030.3 1112.55 1031.37 1115.65 1033.51 1117.93C1035.7 1120.17 1038.77 1121.29 1042.73 1121.29ZM1140.06 1080.16L1131.28 1130H1121.21L1126.93 1097.72L1107.93 1130H1100.29L1092.65 1097.65L1086.94 1130H1076.87L1085.72 1080.16H1097.08L1106.43 1117.15L1128.71 1080.16H1140.06Z" fill="#FD6119"/>
<defs>
<clipPath id="clip0_438_65">
<rect width="945.692" height="356.245" fill="white" transform="translate(166.325 163)"/>
</clipPath>
</defs>
</svg>
